<?xml version="1.0" encoding="UTF-8"?>
<svg width="700pt" height="700pt" version="1.1" viewBox="0 0 700 700" xmlns="http://www.w3.org/2000/svg">
 <g>
  <path d="m256.66 402.5c-15.109 1.4336-30.324-1.2617-44.016-7.8008-13.695-6.5391-25.355-16.676-33.738-29.328-2.8633-5.5-8.418-9.0742-14.609-9.3984-6.1914-0.32812-12.094 2.6484-15.516 7.8203-3.418 5.1719-3.8477 11.766-1.125 17.336 11.258 18.484 27.379 33.52 46.602 43.461s40.812 14.406 62.402 12.91c31.492-0.58984 62.309-9.2617 89.492-25.18 22.379-13.336 47.797-20.734 73.84-21.488 15.098-1.4727 30.312 1.1992 44.004 7.7305 13.691 6.5273 25.348 16.668 33.707 29.324 2.8047 5.5898 8.375 9.2539 14.617 9.6211 6.2422 0.36328 12.207-2.6289 15.641-7.8516 3.4375-5.2227 3.8281-11.883 1.0234-17.469-11.258-18.48-27.375-33.512-46.598-43.449-19.223-9.9414-40.809-14.402-62.395-12.906-31.496 0.59375-62.312 9.2617-89.492 25.18-22.383 13.336-47.801 20.734-73.84 21.488z"/>
  <path d="m330.49 147.68c-22.379 13.336-47.797 20.73-73.836 21.488-15.109 1.4336-30.324-1.2617-44.016-7.8008-13.695-6.5391-25.355-16.676-33.738-29.328-2.8555-5.5156-8.418-9.1055-14.621-9.4336-6.1992-0.32812-12.113 2.6562-15.531 7.8398-3.418 5.1836-3.8359 11.793-1.0898 17.367 11.258 18.48 27.379 33.508 46.602 43.449 19.223 9.9375 40.805 14.402 62.395 12.906 31.492-0.59375 62.309-9.2617 89.492-25.18 22.379-13.336 47.797-20.734 73.84-21.488 15.098-1.4727 30.312 1.1992 44.004 7.7266 13.691 6.5312 25.348 16.668 33.707 29.328 2.8047 5.5859 8.375 9.2539 14.617 9.6211 6.2422 0.36328 12.207-2.6289 15.641-7.8516 3.4375-5.2227 3.8281-11.883 1.0234-17.473-11.258-18.48-27.375-33.508-46.598-43.449-19.223-9.9375-40.809-14.402-62.395-12.902-31.496 0.58984-62.312 9.2617-89.496 25.18z"/>
  <path d="m256.66 285.83c-15.109 1.4375-30.324-1.2617-44.016-7.8008-13.695-6.5391-25.355-16.676-33.738-29.324-2.8633-5.5-8.4219-9.0781-14.613-9.4023-6.1914-0.32031-12.094 2.6562-15.512 7.8281-3.418 5.1719-3.8438 11.766-1.1211 17.336 11.258 18.484 27.379 33.516 46.602 43.457 19.223 9.9414 40.809 14.406 62.398 12.906 31.492-0.58984 62.309-9.2578 89.492-25.176 22.379-13.34 47.797-20.734 73.84-21.488 15.098-1.4727 30.312 1.1992 44.004 7.7266 13.691 6.5273 25.348 16.668 33.707 29.324 2.8047 5.5898 8.375 9.2578 14.617 9.6211 6.2422 0.36719 12.207-2.625 15.641-7.8477 3.4375-5.2227 3.8281-11.883 1.0234-17.473-11.258-18.48-27.375-33.512-46.598-43.449-19.223-9.9375-40.809-14.402-62.395-12.902-31.496 0.58984-62.312 9.2578-89.492 25.176-22.383 13.34-47.801 20.734-73.84 21.488z"/>
 </g>
</svg>
